<svg width="16" height="16" viewBox="0 0 16 16" fill="none" xmlns="http://www.w3.org/2000/svg">
<path d="M12.6666 7.00001C12.6666 8.12077 12.3343 9.21636 11.7116 10.1482C11.089 11.0801 10.204 11.8064 9.16852 12.2353C8.13307 12.6642 6.9937 12.7764 5.89447 12.5578C4.79524 12.3391 3.78554 11.7994 2.99304 11.0069C2.20055 10.2145 1.66085 9.20475 1.4422 8.10552C1.22355 7.0063 1.33577 5.86692 1.76466 4.83147C2.19356 3.79602 2.91987 2.91101 3.85175 2.28835C4.78363 1.66569 5.87922 1.33334 6.99998 1.33334C8.50288 1.33334 9.94422 1.93037 11.0069 2.99307C12.0696 4.05578 12.6666 5.49712 12.6666 7.00001Z" stroke="#8E8E8E" stroke-width="1.33333" stroke-linecap="round" stroke-linejoin="round"/>
<path d="M11.0073 11.0073L14.6667 14.6667" stroke="#8E8E8E" stroke-width="1.33333" stroke-linecap="round" stroke-linejoin="round"/>
</svg>
